<svg xmlns="http://www.w3.org/2000/svg" viewBox="0 0 400 220" role="img" aria-label="איור תכנון שבועי בעזרת בינה מלאכותית" fill="none">
  <defs>
    <linearGradient id="ai1" x1="0" y1="0" x2="1" y2="1">
      <stop offset="0" stop-color="#9B8FD4"/>
      <stop offset="1" stop-color="#7EC8E3"/>
    </linearGradient>
  </defs>
  <rect width="400" height="220" rx="16" fill="#F5F4FB"/>
  <!-- geometric background -->
  <rect x="300" y="150" width="70" height="70" rx="14" fill="#9B8FD4" opacity="0.18"/>
  <circle cx="60" cy="55" r="40" fill="#7EC8E3" opacity="0.20"/>
  <!-- central AI hexagon -->
  <path d="M200 60l34 20v40l-34 20-34-20V80z" fill="url(#ai1)"/>
  <circle cx="200" cy="100" r="16" fill="#FFFFFF"/>
  <circle cx="200" cy="100" r="6" fill="#9B8FD4"/>
  <!-- nodes / week days connected -->
  <g stroke="#9B8FD4" stroke-width="2" opacity="0.7">
    <line x1="200" y1="100" x2="110" y2="55"/>
    <line x1="200" y1="100" x2="110" y2="150"/>
    <line x1="200" y1="100" x2="300" y2="55"/>
    <line x1="200" y1="100" x2="300" y2="150"/>
  </g>
  <g fill="#7EC8E3">
    <rect x="92" y="42" width="26" height="26" rx="7"/>
    <rect x="92" y="138" width="26" height="26" rx="7"/>
    <rect x="282" y="42" width="26" height="26" rx="7"/>
    <rect x="282" y="138" width="26" height="26" rx="7"/>
  </g>
</svg>
